<?xml version="1.0" standalone="no"?>
<!DOCTYPE svg PUBLIC "-//W3C//DTD SVG 20010904//EN"
 "http://www.w3.org/TR/2001/REC-SVG-20010904/DTD/svg10.dtd">
<svg version="1.0" xmlns="http://www.w3.org/2000/svg"
 width="300.000000pt" height="300.000000pt" viewBox="0 0 300.000000 300.000000"
 preserveAspectRatio="xMidYMid meet">

<g transform="translate(0.000000,300.000000) scale(0.100000,-0.100000)"
fill="#000000" stroke="none">
<path d="M1350 2994 c-14 -2 -68 -12 -120 -20 -135 -23 -283 -74 -419 -144
-411 -213 -696 -598 -788 -1065 -24 -125 -24 -405 0 -530 29 -148 74 -279 142
-413 210 -413 580 -693 1045 -793 140 -30 418 -33 555 -6 149 29 279 74 413
142 419 213 706 598 799 1070 24 125 24 405 0 530 -29 148 -74 279 -142 413
-209 411 -590 700 -1044 793 -92 19 -380 34 -441 23z m380 -680 l70 -47 0 -58
c0 -64 -21 -99 -60 -99 -23 0 -23 4 -9 -97 6 -43 17 -85 25 -94 34 -38 -2 -93
-46 -69 -22 12 -27 54 -9 66 8 5 9 33 5 91 -9 105 -11 111 -40 106 -13 -3 -27
0 -30 6 -4 5 -13 8 -21 4 -22 -8 -21 -185 0 -203 22 -18 18 -46 -7 -64 -19
-13 -25 -14 -43 -2 -26 18 -31 43 -10 65 13 15 15 36 13 107 -3 87 -3 89 -28
89 l-25 0 -3 -152 c-2 -146 -2 -153 17 -153 28 0 52 -11 45 -21 -7 -12 -141
-12 -148 0 -7 10 17 21 45 21 19 0 19 7 17 153 l-3 152 -25 0 c-24 0 -25 -2
-28 -85 -2 -66 1 -91 15 -118 18 -33 18 -34 -6 -53 -21 -17 -26 -18 -45 -6
-26 18 -32 50 -11 67 21 18 22 195 0 203 -8 4 -17 1 -21 -4 -3 -6 -17 -9 -30
-6 -24 4 -24 4 -24 -88 0 -70 4 -96 15 -105 22 -18 18 -46 -7 -64 -19 -13 -25
-14 -43 -2 -25 17 -31 49 -10 66 11 9 15 33 15 101 0 82 -2 89 -20 89 -39 0
-60 35 -60 99 l0 58 68 46 67 46 163 0 162 1 70 -46z m-327 -768 c44 -18 83
-67 100 -124 8 -26 39 -149 68 -274 30 -125 55 -225 57 -223 2 2 19 110 38
241 41 285 46 306 88 351 75 83 226 37 226 -68 0 -72 -69 -174 -144 -214 -20
-11 -36 -23 -36 -27 0 -4 -18 -129 -40 -278 -22 -149 -40 -273 -40 -276 0 -2
-46 -3 -102 -2 l-102 3 -43 190 c-79 348 -95 416 -99 412 -2 -2 -19 -113 -38
-246 -38 -271 -54 -319 -116 -352 -94 -51 -200 15 -200 125 0 60 40 118 115
168 36 23 65 45 65 49 0 4 11 89 25 190 14 101 25 185 25 186 0 2 18 6 41 9
36 6 39 8 25 22 -26 26 -97 21 -138 -10 l-36 -27 -9 49 c-11 52 -9 55 49 99
51 39 161 52 221 27z"/>
<path d="M1313 2312 c-24 -15 -43 -30 -43 -34 0 -5 104 -8 230 -8 127 0 230 3
230 8 0 4 -20 19 -44 35 -42 26 -47 27 -187 27 -140 0 -145 -1 -186 -28z"/>
<path d="M1232 2198 c3 -45 6 -53 24 -56 15 -2 23 4 28 20 l7 23 16 -22 c20
-29 47 -29 60 -1 l10 23 12 -23 c14 -26 46 -29 61 -4 10 16 10 16 20 0 6 -10
20 -18 30 -18 10 0 24 8 30 18 10 16 10 16 20 0 15 -25 47 -22 61 4 l12 23 10
-23 c13 -28 40 -28 60 1 l16 22 7 -23 c5 -16 13 -22 28 -20 18 3 21 11 24 56
l3 52 -271 0 -271 0 3 -52z"/>
<path d="M1286 1903 c-12 -12 -6 -33 9 -33 8 0 15 6 15 14 0 17 -14 28 -24 19z"/>
<path d="M1406 1903 c-12 -12 -6 -33 9 -33 8 0 15 6 15 14 0 17 -14 28 -24 19z"/>
<path d="M1576 1903 c-12 -12 -6 -33 9 -33 8 0 15 6 15 14 0 17 -14 28 -24 19z"/>
<path d="M1714 1899 c-10 -17 13 -36 27 -22 12 12 4 33 -11 33 -5 0 -12 -5
-16 -11z"/>
<path d="M1852 1441 c-14 -8 -32 -69 -31 -106 0 -17 6 -14 35 18 25 27 34 45
32 64 -3 29 -16 37 -36 24z"/>
<path d="M1131 845 c-17 -20 -31 -41 -31 -48 0 -24 26 -50 43 -44 25 9 51 127
28 127 -5 0 -23 -16 -40 -35z"/>
</g>
</svg>
