<?xml version="1.0" standalone="no"?>
<!DOCTYPE svg PUBLIC "-//W3C//DTD SVG 20010904//EN"
 "http://www.w3.org/TR/2001/REC-SVG-20010904/DTD/svg10.dtd">
<svg version="1.0" xmlns="http://www.w3.org/2000/svg"
 width="300.000000pt" height="300.000000pt" viewBox="0 0 300.000000 300.000000"
 preserveAspectRatio="xMidYMid meet">

<g transform="translate(0.000000,300.000000) scale(0.100000,-0.100000)"
fill="#000000" stroke="none">
<path d="M1214 2980 c-209 -42 -419 -132 -589 -255 -258 -185 -445 -435 -549
-733 -57 -164 -76 -286 -76 -486 0 -196 15 -309 62 -456 152 -475 521 -843
993 -989 153 -47 256 -61 445 -61 193 0 294 14 455 65 458 143 823 503 975
964 54 162 70 272 70 471 0 193 -14 294 -65 455 -163 522 -610 920 -1150 1025
-142 27 -435 27 -571 0z m519 -665 l67 -45 0 -62 c0 -69 -17 -98 -58 -98 -20
0 -23 -4 -19 -22 3 -13 9 -53 12 -90 4 -39 12 -69 20 -72 41 -15 9 -95 -33
-82 -35 11 -47 43 -27 72 13 20 14 39 9 98 -4 41 -9 79 -13 84 -3 6 -24 12
-46 14 l-40 3 -3 -89 c-2 -71 0 -92 14 -107 19 -22 12 -64 -12 -73 -46 -17
-82 37 -50 73 14 15 16 36 14 107 -3 87 -3 89 -28 89 l-25 0 -3 -152 -3 -152
32 -3 c18 -2 34 -9 37 -15 3 -10 -17 -13 -78 -13 -61 0 -81 3 -78 13 3 6 19
13 37 15 l32 3 -3 152 -3 152 -25 0 c-25 0 -25 -2 -28 -89 -2 -71 0 -92 14
-107 19 -22 12 -64 -12 -73 -45 -17 -82 37 -50 73 12 13 16 38 16 104 0 47 -4
88 -8 91 -5 3 -25 3 -45 -1 l-37 -6 0 -85 c0 -65 4 -90 16 -103 32 -36 -5 -90
-50 -73 -24 9 -31 51 -12 73 12 13 16 38 16 104 0 83 -1 87 -22 87 -41 0 -58
28 -58 96 l0 64 67 45 68 45 165 0 165 0 68 -45z m-325 -769 c73 -38 88 -73
158 -368 32 -136 60 -246 61 -244 2 2 19 111 39 242 19 132 39 255 46 274 24
77 68 110 146 110 48 0 58 -4 88 -34 28 -28 34 -41 34 -77 -1 -79 -54 -159
-142 -216 -21 -13 -38 -29 -38 -36 0 -12 -64 -449 -75 -514 l-6 -33 -102 0
-103 0 -58 260 c-91 407 -76 394 -118 103 -26 -181 -42 -262 -58 -292 -70
-138 -260 -91 -260 65 0 70 56 141 146 187 l30 15 23 174 c30 230 25 216 74
226 38 7 40 9 22 19 -45 24 -96 19 -135 -13 -17 -15 -32 -25 -34 -23 -2 2 -8
24 -14 49 -10 41 -9 47 11 69 56 61 198 92 265 57z"/>
<path d="M1310 2307 l-35 -22 113 -3 c61 -1 163 -1 224 0 l113 3 -36 23 c-34
20 -48 22 -190 22 -142 0 -157 -2 -189 -23z"/>
<path d="M1230 2200 c0 -60 22 -77 50 -40 l18 23 11 -21 c15 -28 47 -29 54 -2
3 11 10 20 15 20 5 0 12 -9 15 -20 3 -12 14 -20 25 -20 12 0 23 9 27 20 3 11
10 20 15 20 5 0 12 -9 15 -20 3 -11 15 -20 25 -20 10 0 22 9 25 20 3 11 10 20
15 20 5 0 12 -9 15 -20 4 -11 15 -20 27 -20 11 0 22 8 25 20 3 11 10 20 15 20
5 0 12 -9 15 -20 7 -27 39 -26 54 2 l11 21 18 -23 c28 -37 50 -20 50 40 l0 50
-270 0 -270 0 0 -50z"/>
<path d="M1280 1885 c0 -8 7 -15 15 -15 8 0 15 7 15 15 0 8 -7 15 -15 15 -8 0
-15 -7 -15 -15z"/>
<path d="M1400 1885 c0 -8 7 -15 15 -15 8 0 15 7 15 15 0 8 -7 15 -15 15 -8 0
-15 -7 -15 -15z"/>
<path d="M1570 1885 c0 -8 7 -15 15 -15 8 0 15 7 15 15 0 8 -7 15 -15 15 -8 0
-15 -7 -15 -15z"/>
<path d="M1712 1888 c5 -15 28 -18 29 -3 0 6 -7 12 -17 13 -10 3 -15 -1 -12
-10z"/>
<path d="M1842 1423 c-15 -29 -24 -93 -13 -93 18 0 62 63 59 84 -4 27 -34 33
-46 9z"/>
<path d="M1141 854 c-23 -21 -33 -39 -33 -58 0 -30 17 -47 38 -39 16 6 37 75
32 106 -3 20 -4 20 -37 -9z"/>
</g>
</svg>
